<?xml version="1.0" encoding="utf-8"?>
<!-- (c) ammap.com | SVG map of Argentina - High -->
<svg width="16" height="16" viewBox="0 0 16 16" fill="none" xmlns="http://www.w3.org/2000/svg">
<path fill-rule="evenodd" clip-rule="evenodd" d="M2.93946 10.8L2.07696 12.7C1.92696 13.025 2.00196 13.3875 2.25196 13.6375C2.41446 13.8 2.62696 13.8875 2.83946 13.8875C2.95196 13.8875 3.07696 13.8625 3.18946 13.8125L5.07696 12.95C5.97696 13.4625 6.97696 13.7375 8.01446 13.7375C11.252 13.7375 13.877 11.1125 13.877 7.875C13.877 4.6375 11.252 2 8.01446 2C4.77696 2 2.15196 4.625 2.15196 7.8625C2.15196 8.9 2.42696 9.9125 2.93946 10.8ZM5.11446 11.9C5.05196 11.9 4.97696 11.925 4.91446 11.95L3.12696 12.75L3.93946 10.9625C4.00196 10.8125 3.98946 10.6375 3.90196 10.5C3.38946 9.7125 3.12696 8.8 3.12696 7.8625C3.12696 5.1625 5.31446 2.975 8.01446 2.975C10.7145 2.975 12.902 5.1625 12.902 7.8625C12.902 10.5625 10.702 12.75 8.01446 12.75C7.07696 12.75 6.16446 12.475 5.37696 11.975C5.30196 11.925 5.20196 11.9 5.11446 11.9Z" fill="#7E7E7E"/>
</svg>
